<svg width="199" height="36" viewBox="0 0 199 36" fill="none" xmlns="http://www.w3.org/2000/svg">
<g clip-path="url(#clip0_449_4)">
<path d="M192.026 0H6C2.68629 0 0 2.68629 0 6V30C0 33.3137 2.68629 36 6 36H192.026C195.34 36 198.026 33.3137 198.026 30V6C198.026 2.68629 195.34 0 192.026 0Z" fill="url(#paint0_linear_449_4)"/>
<path d="M24.667 11.333V14M19.333 11.333V14M16 16.667H28M20 20.667L21.333 22L24 19.333M17.333 12.667H26.667C27.403 12.667 28 13.264 28 14V23.333C28 24.07 27.403 24.667 26.667 24.667H17.333C17.1579 24.667 16.9844 24.6325 16.8227 24.5654C16.6609 24.4984 16.5139 24.4001 16.3901 24.2762C16.2663 24.1523 16.1681 24.0053 16.1012 23.8434C16.0343 23.6816 15.9999 23.5081 16 23.333V14C16 13.264 16.597 12.667 17.333 12.667Z" stroke="white" stroke-width="1.25" stroke-linecap="round" stroke-linejoin="round"/>
<path d="M98.603 23.2029L96.356 15.5659H97.892L99.388 21.1739H99.463L100.964 15.5659H102.5L103.992 21.1489H104.066L105.553 15.5659H107.089L104.847 23.2029H103.331L101.779 17.6889H101.665L100.114 23.2029H98.603ZM108.5 23.2029V15.5659H109.986V23.2029H108.5ZM109.251 14.3879C109.004 14.3924 108.764 14.2998 108.584 14.1299C108.497 14.0504 108.428 13.9534 108.381 13.8454C108.334 13.7374 108.31 13.6207 108.311 13.5029C108.311 13.2579 108.402 13.0489 108.584 12.8769C108.672 12.7913 108.777 12.7239 108.891 12.6786C109.006 12.6333 109.128 12.611 109.251 12.6129C109.373 12.6108 109.495 12.6331 109.608 12.6784C109.722 12.7237 109.825 12.7912 109.912 12.8769C110 12.9553 110.071 13.0517 110.119 13.1597C110.167 13.2677 110.191 13.3848 110.19 13.5029C110.19 13.7449 110.097 13.9529 109.912 14.1299C109.734 14.2999 109.497 14.3927 109.251 14.3879ZM115.551 15.5659V16.7589H111.38V15.5659H115.551ZM112.498 13.7359H113.985V20.9599C113.985 21.2489 114.028 21.4659 114.114 21.6119C114.2 21.7539 114.311 21.8519 114.447 21.9049C114.586 21.9549 114.737 21.9799 114.9 21.9799C115.019 21.9799 115.123 21.9709 115.213 21.9549L115.422 21.9149L115.69 23.1429C115.57 23.1855 115.447 23.219 115.322 23.2429C115.126 23.2834 114.926 23.3035 114.726 23.3029C114.35 23.3124 113.977 23.2408 113.632 23.0929C113.299 22.9513 113.014 22.7166 112.811 22.4169C112.603 22.1119 112.498 21.7289 112.498 21.2689V13.7369V13.7359ZM118.846 18.6689V23.2029H117.359V13.0199H118.826V16.8079H118.92C119.099 16.3979 119.373 16.0709 119.741 15.8279C120.108 15.5869 120.589 15.4659 121.182 15.4659C121.706 15.4659 122.163 15.5739 122.555 15.7889C122.949 16.0049 123.254 16.3259 123.469 16.7539C123.688 17.1779 123.797 17.7079 123.797 18.3439V23.2019H122.311V18.5229C122.311 17.9629 122.167 17.5289 121.878 17.2209C121.59 16.9089 121.189 16.7539 120.675 16.7539C120.324 16.7539 120.009 16.8279 119.731 16.9769C119.456 17.1269 119.238 17.3449 119.079 17.6329C118.924 17.9189 118.846 18.2629 118.846 18.6679V18.6689ZM135.09 23.3869C132.074 23.3869 129.797 21.0369 129.797 18.1369C129.797 15.2229 131.958 12.8599 135.09 12.8599C136.743 12.8599 137.888 13.3669 138.802 14.4549L137.366 15.7019C136.757 15.0639 136.003 14.7449 135.09 14.7449C133.132 14.7449 131.9 16.2819 131.9 18.1379C131.9 19.9939 133.132 21.5019 135.133 21.5019C136.119 21.5019 136.859 21.1679 137.453 20.5159L138.932 21.7769C138.164 22.7049 136.859 23.3869 135.09 23.3869Z" fill="white"/>
<path d="M142.627 23.387C140.554 23.387 138.901 21.632 138.901 19.457C138.901 17.282 140.554 15.499 142.627 15.499C143.932 15.499 144.614 16.035 145.02 16.847V15.658H146.963V23.198H145.063V21.966C144.657 22.821 143.976 23.387 142.627 23.387ZM140.858 19.443C140.858 20.588 141.699 21.618 142.946 21.618C144.237 21.618 145.063 20.632 145.063 19.458C145.063 18.283 144.237 17.268 142.946 17.268C141.699 17.268 140.858 18.268 140.858 19.443ZM148.126 23.198V12.613H150.083V23.198H148.126ZM152.285 23.387C151.531 23.387 150.98 22.807 150.98 22.111C150.98 21.429 151.531 20.849 152.285 20.849C153.039 20.849 153.575 21.429 153.575 22.111C153.575 22.807 153.039 23.387 152.285 23.387ZM157.782 23.387C155.622 23.387 153.896 21.617 153.896 19.428C153.896 17.238 155.578 15.484 157.884 15.47C159.261 15.455 160.378 15.992 161.016 16.876L159.508 18.109C159.334 17.8451 159.097 17.6286 158.819 17.4791C158.54 17.3297 158.229 17.252 157.913 17.253C156.666 17.253 155.854 18.253 155.854 19.428C155.854 20.603 156.709 21.603 157.956 21.603C158.71 21.603 159.203 21.226 159.595 20.704L161.016 21.937C160.305 22.85 159.261 23.387 157.782 23.387ZM165.035 23.387C162.701 23.387 161.019 21.617 161.019 19.443C161.019 17.268 162.701 15.484 165.035 15.484C167.37 15.484 169.052 17.268 169.052 19.443C169.052 21.618 167.37 23.387 165.035 23.387ZM162.976 19.443C162.976 20.617 163.788 21.603 165.035 21.603C166.282 21.603 167.094 20.617 167.094 19.443C167.094 18.268 166.282 17.268 165.035 17.268C163.788 17.268 162.976 18.268 162.976 19.443ZM169.918 23.198V15.658H171.847V16.76C172.238 15.92 172.992 15.484 174.152 15.484C175.211 15.484 176.11 15.992 176.603 16.905C177.11 15.992 177.835 15.485 179.155 15.485C180.779 15.485 182.026 16.688 182.026 18.587V23.198H180.068V19.066C180.068 17.761 179.445 17.196 178.56 17.196C177.647 17.196 177.023 17.616 177.023 19.066V23.198H175.066V19.066C175.066 17.761 174.413 17.196 173.442 17.196C172.615 17.196 171.876 17.761 171.876 19.066V23.198H169.918Z" fill="white"/>
<path d="M36.4652 13.5455V23H35.0387V13.5455H36.4652ZM39.8121 18.7898V23H38.4318V15.9091H39.7567V17.0632H39.8445C40.0076 16.6877 40.263 16.3861 40.6108 16.1584C40.9616 15.9306 41.4033 15.8168 41.9357 15.8168C42.4189 15.8168 42.8421 15.9183 43.2053 16.1214C43.5684 16.3215 43.85 16.62 44.0501 17.017C44.2501 17.4141 44.3501 17.9049 44.3501 18.4897V23H42.9698V18.6559C42.9698 18.1419 42.8359 17.7403 42.5682 17.451C42.3004 17.1586 41.9326 17.0124 41.4648 17.0124C41.1448 17.0124 40.8601 17.0817 40.6108 17.2202C40.3646 17.3587 40.1692 17.5618 40.0245 17.8295C39.8829 18.0942 39.8121 18.4143 39.8121 18.7898ZM52.0135 15.9091L49.4421 23H47.9648L45.3888 15.9091H46.8707L48.6665 21.3658H48.7404L50.5316 15.9091H52.0135ZM53.3107 23V15.9091H54.6911V23H53.3107ZM54.0078 14.815C53.7678 14.815 53.5616 14.735 53.3892 14.5749C53.2199 14.4118 53.1353 14.2179 53.1353 13.9933C53.1353 13.7655 53.2199 13.5716 53.3892 13.4116C53.5616 13.2485 53.7678 13.1669 54.0078 13.1669C54.2479 13.1669 54.4525 13.2485 54.6218 13.4116C54.7942 13.5716 54.8803 13.7655 54.8803 13.9933C54.8803 14.2179 54.7942 14.4118 54.6218 14.5749C54.4525 14.735 54.2479 14.815 54.0078 14.815ZM59.858 15.9091V17.017H55.9848V15.9091H59.858ZM57.0235 14.2102H58.4039V20.918C58.4039 21.1857 58.4439 21.3873 58.5239 21.5227C58.6039 21.6551 58.707 21.7459 58.8332 21.7951C58.9624 21.8413 59.1025 21.8643 59.2533 21.8643C59.3641 21.8643 59.461 21.8567 59.5441 21.8413C59.6272 21.8259 59.6919 21.8136 59.738 21.8043L59.9873 22.9446C59.9073 22.9754 59.7934 23.0062 59.6457 23.0369C59.498 23.0708 59.3133 23.0893 59.0917 23.0923C58.7285 23.0985 58.39 23.0339 58.0761 22.8984C57.7622 22.763 57.5083 22.5537 57.3144 22.2706C57.1205 21.9875 57.0235 21.632 57.0235 21.2042V14.2102ZM64.3649 23.1431C63.6663 23.1431 63.0646 22.9938 62.5598 22.6953C62.0582 22.3937 61.6704 21.9705 61.3965 21.4258C61.1257 20.878 60.9902 20.2363 60.9902 19.5007C60.9902 18.7744 61.1257 18.1342 61.3965 17.5803C61.6704 17.0263 62.052 16.5939 62.5414 16.283C63.0338 15.9722 63.6093 15.8168 64.2679 15.8168C64.668 15.8168 65.0558 15.8829 65.4313 16.0153C65.8068 16.1476 66.1438 16.3554 66.4423 16.6385C66.7408 16.9216 66.9763 17.2894 67.1486 17.7418C67.321 18.1912 67.4071 18.7375 67.4071 19.3807V19.87H61.7704V18.8359H66.0545C66.0545 18.4728 65.9806 18.1512 65.8329 17.8711C65.6852 17.5879 65.4775 17.3648 65.2097 17.2017C64.945 17.0386 64.6342 16.957 64.2772 16.957C63.8894 16.957 63.5508 17.0524 63.2615 17.2433C62.9753 17.431 62.7537 17.6772 62.5968 17.9819C62.4429 18.2835 62.3659 18.6113 62.3659 18.9652V19.7731C62.3659 20.247 62.449 20.6502 62.6152 20.9826C62.7845 21.315 63.0199 21.5689 63.3216 21.7443C63.6232 21.9167 63.9756 22.0028 64.3787 22.0028C64.6403 22.0028 64.8788 21.9659 65.0943 21.892C65.3097 21.8151 65.4959 21.7012 65.6529 21.5504C65.8098 21.3996 65.9299 21.2134 66.013 20.9918L67.3194 21.2273C67.2148 21.612 67.027 21.949 66.7562 22.2383C66.4885 22.5245 66.1515 22.7476 65.7452 22.9077C65.342 23.0646 64.8819 23.1431 64.3649 23.1431ZM72.3791 23V15.9091H73.704V17.0632H73.7917C73.9395 16.6723 74.181 16.3677 74.5165 16.1491C74.852 15.9276 75.2536 15.8168 75.7214 15.8168C76.1954 15.8168 76.5924 15.9276 76.9125 16.1491C77.2356 16.3707 77.4741 16.6754 77.628 17.0632H77.7019C77.8712 16.6847 78.1404 16.383 78.5098 16.1584C78.8791 15.9306 79.3192 15.8168 79.8301 15.8168C80.4733 15.8168 80.998 16.0183 81.4043 16.4215C81.8136 16.8247 82.0183 17.4325 82.0183 18.245V23H80.638V18.3743C80.638 17.8942 80.5072 17.5464 80.2456 17.331C79.984 17.1155 79.6716 17.0078 79.3084 17.0078C78.8591 17.0078 78.5098 17.1463 78.2605 17.4233C78.0112 17.6972 77.8865 18.0496 77.8865 18.4805V23H76.5108V18.2866C76.5108 17.9019 76.3908 17.5926 76.1507 17.3587C75.9107 17.1248 75.5983 17.0078 75.2136 17.0078C74.952 17.0078 74.7104 17.0771 74.4888 17.2156C74.2703 17.351 74.0933 17.5402 73.9579 17.7834C73.8256 18.0265 73.7594 18.3081 73.7594 18.6282V23H72.3791ZM86.9244 23.1431C86.2258 23.1431 85.6241 22.9938 85.1194 22.6953C84.6177 22.3937 84.23 21.9705 83.9561 21.4258C83.6852 20.878 83.5498 20.2363 83.5498 19.5007C83.5498 18.7744 83.6852 18.1342 83.9561 17.5803C84.23 17.0263 84.6116 16.5939 85.1009 16.283C85.5934 15.9722 86.1689 15.8168 86.8275 15.8168C87.2276 15.8168 87.6154 15.8829 87.9909 16.0153C88.3663 16.1476 88.7033 16.3554 89.0019 16.6385C89.3004 16.9216 89.5358 17.2894 89.7082 17.7418C89.8805 18.1912 89.9667 18.7375 89.9667 19.3807V19.87H84.33V18.8359H88.6141C88.6141 18.4728 88.5402 18.1512 88.3925 17.8711C88.2448 17.5879 88.037 17.3648 87.7693 17.2017C87.5046 17.0386 87.1937 16.957 86.8367 16.957C86.449 16.957 86.1104 17.0524 85.8211 17.2433C85.5349 17.431 85.3133 17.6772 85.1563 17.9819C85.0025 18.2835 84.9255 18.6113 84.9255 18.9652V19.7731C84.9255 20.247 85.0086 20.6502 85.1748 20.9826C85.3441 21.315 85.5795 21.5689 85.8811 21.7443C86.1827 21.9167 86.5351 22.0028 86.9383 22.0028C87.1999 22.0028 87.4384 21.9659 87.6539 21.892C87.8693 21.8151 88.0555 21.7012 88.2124 21.5504C88.3694 21.3996 88.4894 21.2134 88.5725 20.9918L89.879 21.2273C89.7744 21.612 89.5866 21.949 89.3158 22.2383C89.048 22.5245 88.711 22.7476 88.3048 22.9077C87.9016 23.0646 87.4415 23.1431 86.9244 23.1431Z" fill="white"/>
</g>
<defs>
<linearGradient id="paint0_linear_449_4" x1="530" y1="18" x2="-160" y2="18" gradientUnits="userSpaceOnUse">
<stop stop-color="#0095EC"/>
<stop offset="1" stop-color="#17232E"/>
</linearGradient>
<clipPath id="clip0_449_4">
<rect width="199" height="36" fill="white"/>
</clipPath>
</defs>
</svg>