<svg height="800px" width="800px" version="1.1" id="Layer_1" xmlns="http://www.w3.org/2000/svg" xmlns:xlink="http://www.w3.org/1999/xlink" 
	 viewBox="0 0 512 512" xml:space="preserve">
<path style="fill:#0E4151;" d="M19.873,512c-5.086,0-10.172-1.94-14.052-5.822c-7.761-7.761-7.761-20.344,0-28.105l289.946-289.946
	c7.76-7.761,20.344-7.761,28.105,0c7.761,7.761,7.761,20.344,0,28.105L33.925,506.178C30.046,510.06,24.96,512,19.873,512z"/>
<path style="fill:#144F66;" d="M5.822,506.178c-7.761-7.761-7.761-20.344,0-28.105l289.946-289.946
	c7.76-7.761,20.344-7.761,28.105,0L5.822,506.178z"/>
<path style="fill:#F79D1E;" d="M508.053,199.349l-50.258-67.348l26.988-79.582c2.429-7.164,0.58-15.086-4.768-20.435
	c-5.349-5.349-13.271-7.197-20.435-4.768l-79.582,26.988L312.65,3.947c-6.061-4.524-14.168-5.215-20.908-1.781
	s-10.946,10.398-10.849,17.961l1.074,84.026l-68.611,48.52c-6.177,4.368-9.336,11.863-8.153,19.335
	c1.184,7.471,6.507,13.624,13.73,15.868l80.246,24.944l24.944,80.246c2.244,7.223,8.397,12.545,15.868,13.73
	c1.04,0.164,2.08,0.245,3.112,0.245c6.385,0,12.463-3.083,16.223-8.398l48.52-68.611l84.026,1.074
	c7.585,0.078,14.527-4.11,17.961-10.849C513.267,213.517,512.578,205.413,508.053,199.349z"/>
<path style="fill:#FBB03B;" d="M480.015,31.985c-5.349-5.349-13.271-7.197-20.435-4.768l-79.582,26.988L312.65,3.947
	c-6.061-4.524-14.168-5.215-20.908-1.781s-10.946,10.398-10.849,17.961l1.074,84.026l-68.611,48.52
	c-6.177,4.368-9.336,11.863-8.153,19.335c1.184,7.471,6.507,13.624,13.73,15.868l80.246,24.944L480.015,31.985z"/>
</svg>