<svg width="800" height="800" viewBox="0 0 800 800" fill="none" xmlns="http://www.w3.org/2000/svg">
<path opacity="0.1" d="M633.333 366.667C633.333 513.943 513.943 633.333 366.667 633.333C219.391 633.333 100 513.943 100 366.667C100 219.391 219.391 100 366.667 100C513.943 100 633.333 219.391 633.333 366.667Z" fill="#EF562F"/>
<path d="M566.667 566.667L700 700" stroke="#fff" stroke-width="20" stroke-linecap="round" stroke-linejoin="round"/>
<path d="M633.333 366.667C633.333 513.943 513.943 633.333 366.667 633.333C219.391 633.333 100 513.943 100 366.667C100 219.391 219.391 100 366.667 100C513.943 100 633.333 219.391 633.333 366.667Z" stroke="#fff" stroke-width="32"/>
<path d="M169.537 383V266.499H245.459V283.703H190.107V313.623H235.548V331.014H190.107V365.796H244.898V383H169.537ZM290.526 385.244C280.927 385.244 273.447 383 268.086 378.512C262.85 373.899 260.232 367.978 260.232 360.747C260.232 356.134 261.229 351.896 263.224 348.031C265.343 344.042 268.46 340.613 272.574 337.746C276.688 334.879 281.799 332.697 287.908 331.201C294.017 329.58 300.998 328.77 308.852 328.77C309.849 328.77 311.096 328.77 312.592 328.77C314.088 328.77 315.709 328.832 317.454 328.957C319.199 328.957 320.82 329.082 322.316 329.331L322.877 343.917C321.63 343.792 320.134 343.73 318.389 343.73C316.644 343.605 314.836 343.543 312.966 343.543C311.221 343.418 309.725 343.356 308.478 343.356C303.491 343.356 299.253 343.73 295.762 344.478C292.396 345.226 289.653 346.286 287.534 347.657C285.415 348.904 283.856 350.462 282.859 352.332C281.862 354.077 281.363 356.01 281.363 358.129C281.363 360.124 281.675 361.807 282.298 363.178C283.046 364.549 283.981 365.671 285.103 366.544C286.35 367.292 287.783 367.853 289.404 368.227C291.025 368.601 292.77 368.788 294.64 368.788C298.38 368.788 301.621 368.227 304.364 367.105C307.231 365.858 309.6 363.926 311.47 361.308C313.465 358.69 314.898 355.449 315.771 351.584C316.768 347.595 317.267 342.92 317.267 337.559C317.267 330.328 316.519 324.781 315.023 320.916C313.527 317.051 311.345 314.371 308.478 312.875C305.611 311.254 301.995 310.444 297.632 310.444C293.643 310.444 289.84 311.13 286.225 312.501C282.734 313.748 279.306 316.116 275.94 319.607L264.346 306.891C269.208 302.278 274.631 298.975 280.615 296.98C286.599 294.985 292.583 293.988 298.567 293.988C304.052 293.988 309.164 294.611 313.901 295.858C318.638 297.105 322.752 299.224 326.243 302.216C329.858 305.083 332.663 309.073 334.658 314.184C336.777 319.171 337.837 325.404 337.837 332.884V383H315.958V373.65C314.337 375.769 312.592 377.577 310.722 379.073C308.852 380.569 306.857 381.753 304.738 382.626C302.619 383.499 300.375 384.122 298.006 384.496C295.637 384.995 293.144 385.244 290.526 385.244ZM395.433 385.057C390.197 385.057 385.148 384.558 380.286 383.561C375.424 382.688 370.936 381.255 366.822 379.26C362.708 377.141 358.906 374.46 355.415 371.219L364.765 354.015L365.513 352.519L367.009 353.454C367.383 354.327 367.757 355.324 368.131 356.446C368.505 357.443 369.44 358.628 370.936 359.999C374.053 362.617 377.606 364.674 381.595 366.17C385.584 367.666 390.322 368.414 395.807 368.414C399.298 368.414 402.227 368.04 404.596 367.292C407.089 366.419 408.959 365.297 410.206 363.926C411.577 362.43 412.263 360.747 412.263 358.877C412.263 357.381 411.889 356.072 411.141 354.95C410.393 353.828 409.209 352.831 407.588 351.958C405.967 351.085 403.848 350.213 401.23 349.34C398.612 348.343 395.495 347.283 391.88 346.161C385.522 344.54 379.974 342.546 375.237 340.177C370.624 337.684 367.071 334.692 364.578 331.201C362.085 327.71 360.838 323.659 360.838 319.046C360.838 314.184 362.209 309.883 364.952 306.143C367.819 302.403 371.809 299.473 376.92 297.354C382.031 295.11 388.078 293.988 395.059 293.988C398.674 293.988 402.103 294.3 405.344 294.923C408.585 295.422 411.64 296.232 414.507 297.354C417.499 298.351 420.242 299.723 422.735 301.468C425.353 303.089 427.784 305.021 430.028 307.265L419.743 321.664L418.434 323.16L417.125 322.038C417 321.041 416.689 320.106 416.19 319.233C415.816 318.236 414.881 317.051 413.385 315.68C410.892 313.81 408.024 312.439 404.783 311.566C401.666 310.693 398.55 310.257 395.433 310.257C391.194 310.257 387.517 310.943 384.4 312.314C381.408 313.685 379.912 315.805 379.912 318.672C379.912 320.293 380.598 321.789 381.969 323.16C383.34 324.407 385.584 325.653 388.701 326.9C391.942 328.022 396.181 329.269 401.417 330.64C408.398 332.51 414.071 334.692 418.434 337.185C422.922 339.554 426.163 342.421 428.158 345.787C430.277 349.153 431.337 353.08 431.337 357.568C431.337 362.43 429.966 366.98 427.223 371.219C424.48 375.458 420.429 378.824 415.068 381.317C409.832 383.81 403.287 385.057 395.433 385.057ZM464.062 415.912C459.948 415.912 456.208 415.164 452.842 413.668C449.601 412.297 446.422 410.364 443.305 407.871L450.598 393.285L451.346 391.602L453.029 392.35C453.403 393.347 453.839 394.282 454.338 395.155C454.961 396.028 456.083 397.025 457.704 398.147C458.577 398.646 459.512 399.02 460.509 399.269C461.631 399.518 462.815 399.643 464.062 399.643C466.555 399.643 468.675 398.957 470.42 397.586C472.29 396.215 473.973 394.095 475.469 391.228C477.09 388.361 478.648 384.683 480.144 380.195L499.031 326.9C500.901 321.539 502.459 316.366 503.706 311.379C505.077 306.392 505.888 301.281 506.137 296.045H525.772C525.273 301.655 523.964 307.577 521.845 313.81C519.726 319.919 517.606 325.84 515.487 331.575L493.982 390.667C490.491 399.892 486.253 406.375 481.266 410.115C476.404 413.98 470.669 415.912 464.062 415.912ZM446.297 296.045H467.428L493.047 362.43L482.014 385.057L446.297 296.045ZM403.811 426.831H415.965L437.698 469.061L437.08 426.831H447.483H448.41V427.758C448.067 428.17 447.826 428.616 447.689 429.097C447.62 429.578 447.586 430.402 447.586 431.569V491H436.771L414.317 445.989V491H403.811V426.831ZM456.444 491V426.831H478.28C483.293 426.831 487.378 427.689 490.537 429.406C493.764 431.123 496.133 433.389 497.644 436.204C499.223 439.019 500.013 442.178 500.013 445.68C500.013 448.221 499.567 450.624 498.674 452.89C497.85 455.087 496.545 457.044 494.76 458.761C493.043 460.409 490.846 461.714 488.168 462.675C485.559 463.636 482.434 464.117 478.795 464.117H468.289V491H456.444ZM468.289 454.435H477.971C480.168 454.435 482.022 454.057 483.533 453.302C485.044 452.547 486.177 451.517 486.932 450.212C487.687 448.907 488.065 447.397 488.065 445.68C488.065 443.963 487.687 442.453 486.932 441.148C486.177 439.843 485.044 438.813 483.533 438.058C482.091 437.303 480.271 436.925 478.074 436.925H468.289V454.435ZM506.296 491V426.831H516.493L528.956 456.289L541.419 426.728H551.616V491H541.522V446.195L531.428 469.782H525.763L516.287 446.298V491H506.296Z" fill="#fff"/>
</svg>
