<svg height="800px" width="800px" version="1.1" id="Layer_1" xmlns="http://www.w3.org/2000/svg" xmlns:xlink="http://www.w3.org/1999/xlink" 
	 viewBox="0 0 392.598 392.598" xml:space="preserve">
<path style="fill:#FFFFFF;" d="M281.598,370.747c2.263-44.283,18.23-87.919,45.576-124.121c18.554-24.501,28.38-53.721,28.38-84.558
	c0-77.382-62.966-140.348-140.348-140.348S74.858,84.687,74.858,162.069v33.551c0,2.069-0.646,4.073-1.681,5.883L39.69,254.255
	h24.242c6.012,0,10.925,4.848,10.925,10.925v25.083c0,6.659,5.43,12.154,12.154,12.154h26.246c6.012,0,10.925,4.848,10.925,10.925
	v57.406H281.598L281.598,370.747z"/>
<path style="fill:#FFC10D;" d="M145.969,348.962V280.63H96.644v-48.162H79.319l17.325-27.345v-43.055
	c0-65.358,53.139-118.562,118.562-118.562s118.497,53.204,118.497,118.626c0,26.053-8.275,50.683-23.984,71.37
	c-25.729,33.939-42.279,74.02-47.968,115.459H145.969L145.969,348.962z"/>
<path style="fill:#194F82;" d="M215.206,0C125.8,0,53.072,72.727,53.072,162.133v30.448l-34.909,55.079
	c-3.62,5.689-3.879,12.994-0.646,18.877c3.232,5.947,9.503,9.568,16.226,9.568h19.265v14.222c0,18.683,15.192,33.939,33.939,33.939
	h15.386v57.406c0,6.012,4.848,10.925,10.925,10.925h178.877c6.012,0,10.925-4.848,10.925-10.925
	c0-43.184,14.739-86.497,41.503-121.859c21.398-28.251,32.776-62.125,32.776-97.681C377.339,72.727,304.547,0,215.206,0z
	 M327.173,246.626c-27.345,36.137-43.378,79.838-45.576,124.121H124.183v-57.406c0-6.012-4.848-10.925-10.925-10.925H87.012
	c-6.659,0-12.154-5.43-12.154-12.154V265.18c0-6.012-4.848-10.925-10.925-10.925H39.69l33.487-52.752
	c1.099-1.745,1.681-3.814,1.681-5.883v-33.552c0-77.382,62.966-140.347,140.347-140.347s140.218,62.966,140.218,140.347
	C355.424,192.97,345.727,222.125,327.173,246.626z"/>
<path style="fill:#56ACE0;" d="M312.499,145.455c0.065,9.632-4.008,18.101-11.119,23.79c-4.202,3.297-7.628,7.24-10.408,11.572
	c-15.774-3.943-20.687-11.119-21.204-11.83c-2.844-5.107-9.374-7.046-14.61-4.331c-5.301,2.78-7.37,9.438-4.59,14.739
	c0.905,1.681,8.792,15.192,32.905,21.85c-0.323,2.263-0.453,4.59-0.453,6.853c0,11.184-2.651,21.398-7.499,28.574
	c-4.331,6.594-9.891,9.826-16.485,9.826h-1.034c-18.23-0.84-18.23-0.84-17.842-20.881c0.065-2.457,0.065-5.172,0.065-8.016
	l0.065-0.453c0.711-4.655,2.78-18.747-6.594-29.673c-6.788-7.887-17.648-11.895-32.517-11.895c-7.434,0-14.545-2.78-20.04-7.758
	c-6.4-5.818-16.291-7.176-24.048-3.426c-11.636,5.818-26.57,2.844-35.297-6.853c-5.689-6.4-8.339-14.675-7.434-23.337
	c1.487-13.059,11.895-24.048,24.824-26.053c1.939-0.323,3.879-0.388,5.818-0.323c5.495,8.598,19.329,21.204,54.109,27.345
	c0.646,0.065,1.293,0.129,1.939,0.129c5.172,0,9.826-3.685,10.731-9.05c1.099-5.947-2.909-11.572-8.792-12.671
	c-30.19-5.301-38.077-15.192-39.693-18.101c0.646-15.903,13.77-28.574,29.737-28.574c4.59,0,8.986,1.034,13.059,3.038
	c11.313,5.56,24.954,6.271,37.883,2.069c2.909-0.905,6.012-1.487,9.115-1.487c16.485,0,29.802,13.382,29.802,29.802
	c0,1.228-0.065,2.651-0.388,4.331c-0.776,5.495,2.651,10.667,7.952,12.024C303.448,120.242,312.499,132.073,312.499,145.455z"/>
<g>
	<path style="fill:#194F82;" d="M304.741,99.297c-0.776-27.798-23.661-50.166-51.588-50.166c-5.43,0-10.731,0.84-15.838,2.457
		c-7.499,2.392-15.386,2.069-21.527-0.905c-7.111-3.491-14.675-5.236-22.626-5.236c-24.76,0-45.511,17.455-50.489,40.792
		c-2.133,0.065-4.396,0.259-6.594,0.646c-22.497,3.491-40.663,22.497-43.184,45.188c-1.616,14.675,3.103,29.35,12.8,40.275
		c9.826,10.925,23.79,17.131,38.465,17.131c7.952,0,15.58-1.745,22.432-5.301c9.503,8.663,21.85,13.446,34.974,13.446
		c7.758,0,13.188,1.552,15.709,4.331c2.844,3.297,1.939,9.568,1.552,12.218c-0.259,1.487-0.323,2.521-0.323,3.168
		c0,2.909-0.065,5.624-0.065,8.21c-0.453,24.889,2.004,41.244,38.659,42.99c0.711,0,1.164,0.065,2.004,0.065
		c13.899,0,26.182-6.982,34.586-19.523c7.176-10.796,11.184-25.277,11.184-40.986c0-8.469,3.814-16.614,10.214-21.721
		c12.347-9.891,19.394-24.566,19.394-40.339C334.349,125.802,322.519,107.701,304.741,99.297z M301.379,169.244
		c-4.202,3.297-7.628,7.24-10.408,11.572c-15.774-3.943-20.687-11.119-21.204-11.83c-2.844-5.107-9.374-7.046-14.61-4.331
		c-5.301,2.78-7.37,9.438-4.59,14.739c0.905,1.681,8.792,15.192,32.905,21.85c-0.323,2.263-0.453,4.59-0.453,6.853
		c0,11.184-2.651,21.398-7.499,28.574c-4.331,6.594-9.891,9.826-16.485,9.826l0,0h-1.034c-18.23-0.84-18.23-0.84-17.842-20.881
		c0.065-2.457,0.065-5.172,0.065-8.016l0.065-0.453c0.711-4.655,2.78-18.747-6.594-29.673c-6.788-7.887-17.648-11.895-32.517-11.895
		c-7.434,0-14.545-2.78-20.04-7.758c-6.4-5.818-16.291-7.176-24.048-3.426c-11.636,5.818-26.57,2.844-35.297-6.853
		c-5.689-6.4-8.339-14.675-7.434-23.337c1.487-13.059,11.895-24.049,24.824-26.053c1.939-0.323,3.879-0.388,5.818-0.323
		c5.495,8.598,19.329,21.204,54.109,27.345c0.646,0.065,1.293,0.129,1.939,0.129c5.172,0,9.826-3.685,10.731-9.051
		c1.099-5.947-2.909-11.572-8.792-12.671c-30.19-5.301-38.077-15.192-39.693-18.101c0.646-15.903,13.77-28.574,29.737-28.574
		c4.59,0,8.986,1.034,13.059,3.038c11.313,5.56,24.954,6.271,37.883,2.069c2.909-0.905,6.012-1.487,9.115-1.487
		c16.485,0,29.802,13.382,29.802,29.802c0,1.228-0.065,2.651-0.388,4.331c-0.776,5.495,2.651,10.667,7.952,12.024
		c12.994,3.556,22.044,15.386,22.044,28.768C312.563,155.087,308.49,163.556,301.379,169.244z"/>
	<path style="fill:#194F82;" d="M245.202,87.725c-5.624,2.004-8.663,8.275-6.659,13.899c0.065,0.129,5.689,16.614-1.034,29.673
		c-3.685,7.176-10.602,12.218-20.945,15.192c-5.818,1.681-9.115,7.758-7.434,13.511c2.521,6.788,7.952,8.792,13.511,7.434
		c16.291-4.784,27.798-13.576,34.327-26.376c10.99-21.527,2.392-45.77,2.069-46.739C257.097,88.63,250.89,85.721,245.202,87.725z"/>
</g>
</svg>