
<svg width="600" height="600" viewBox="0 0 600 600" fill="none" xmlns="http://www.w3.org/2000/svg">
<path d="M183.334 408.767C183.31 366.765 195.951 325.733 219.606 291.026C243.261 256.319 276.831 229.551 315.934 214.217C294.986 192.505 283.296 163.503 283.334 133.333V116.667C283.334 101.346 286.351 86.1749 292.214 72.0203C298.077 57.8656 306.671 45.0044 317.504 34.1709C328.338 23.3374 341.199 14.7438 355.354 8.88072C369.508 3.01767 384.679 0 400 0C415.321 0 430.492 3.01767 444.647 8.88072C458.801 14.7438 471.663 23.3374 482.496 34.1709C493.33 45.0044 501.923 57.8656 507.786 72.0203C513.649 86.1749 516.667 101.346 516.667 116.667V133.333C516.686 149.469 513.349 165.432 506.867 180.209C500.386 194.985 490.901 208.252 479.017 219.167C515.172 235.932 545.775 262.692 567.213 296.288C588.651 329.885 600.028 368.913 600 408.767C600 468.417 506.667 483.333 391.667 483.333C276.667 483.333 183.334 468.417 183.334 408.767Z" fill="url(#paint0_linear_493_5)"/>
<path d="M391.668 474.997C456.16 474.997 503.572 470.231 536.615 460.429C573.661 449.439 591.67 432.539 591.67 408.765C591.67 369.752 580.48 331.939 559.31 299.413C538.675 267.71 509.696 242.578 475.505 226.734L464.191 221.491L473.364 213.043C495.585 192.578 508.33 163.526 508.33 133.335V116.67C508.33 56.933 459.73 8.33333 399.993 8.33333C340.265 8.33333 291.672 56.933 291.672 116.67V133.335C291.672 161.487 302.419 188.161 321.935 208.443L330.586 217.435L318.966 221.981C281.879 236.493 250.207 261.549 227.373 294.44C204.014 328.088 191.667 367.621 191.667 408.765C191.667 432.539 209.675 449.439 246.722 460.429C279.764 470.231 327.177 474.997 391.668 474.997ZM391.668 483.33C276.603 483.33 183.333 468.42 183.333 408.765C183.333 320.25 238.319 244.589 315.93 214.221C295.748 193.246 283.338 164.737 283.338 133.335V116.67C283.338 52.23 335.568 0 399.993 0C464.433 0 516.663 52.23 516.663 116.67V133.335C516.663 167.285 502.161 197.851 479.009 219.173C550.444 252.275 600.003 324.725 600.003 408.765C600.003 468.42 506.733 483.33 391.668 483.33Z" fill="white" fill-opacity="0.3"/>
<path d="M1.33247e-05 516.667C-0.0156797 470.22 13.8306 424.826 39.7662 386.295C65.7018 347.764 102.546 317.85 145.583 300.383C125.155 282.526 110.66 258.862 104.035 232.55C97.4106 206.238 98.9708 178.532 108.508 153.13C118.045 127.728 135.105 105.841 157.409 90.3905C179.713 74.94 206.2 66.6621 233.333 66.6621C260.466 66.6621 286.954 74.94 309.258 90.3905C331.562 105.841 348.622 127.728 358.159 153.13C367.696 178.532 369.256 206.238 362.631 232.55C356.007 258.862 341.512 282.526 321.083 300.383C364.12 317.85 400.965 347.764 426.9 386.295C452.836 424.826 466.682 470.22 466.667 516.667C466.667 583.333 362.2 600 233.333 600C104.467 600 1.33247e-05 583.333 1.33247e-05 516.667Z" fill="black" fill-opacity="0.7"/>
<path d="M233.34 591.674C305.658 591.674 358.852 586.332 395.961 575.344C437.93 562.917 458.332 543.723 458.332 516.667C458.332 471.012 444.738 427.059 419.019 389.56C393.895 352.927 358.946 324.762 317.949 308.111L305.421 303.023L315.597 294.119C342.752 270.356 358.327 236.052 358.327 200.002C358.327 131.076 302.258 75.0003 233.34 75.0003C164.414 75.0003 108.338 131.076 108.338 200.002C108.338 236.057 123.914 270.362 151.071 294.119L161.249 303.023L148.719 308.112C107.72 324.763 72.769 352.927 47.6447 389.561C21.927 427.059 8.33333 471.012 8.33333 516.667C8.33333 543.723 28.7355 562.917 70.7058 575.344C107.816 586.332 161.015 591.674 233.34 591.674ZM233.34 600.007C104.46 600.007 0 583.327 0 516.667C0 418.838 60.1983 335.069 145.584 300.391C117.645 275.95 100.005 240.037 100.005 200.002C100.005 126.367 159.69 66.667 233.34 66.667C306.975 66.667 366.66 126.367 366.66 200.002C366.66 240.033 349.016 275.949 321.085 300.39C406.463 335.067 466.665 418.838 466.665 516.667C466.665 583.327 362.205 600.007 233.34 600.007Z" fill="white" fill-opacity="0.3"/>
<defs>
<linearGradient id="paint0_linear_493_5" x1="391.667" y1="0" x2="391.667" y2="483.333" gradientUnits="userSpaceOnUse">
<stop/>
<stop offset="1" stop-color="#030209"/>
</linearGradient>
</defs>
</svg>
