<svg xmlns="http://www.w3.org/2000/svg" xmlns:xlink="http://www.w3.org/1999/xlink" aria-hidden="true" role="img" width="1em" height="1em" viewBox="0 0 24 24" data-v-962096b9=""><g fill="none" stroke="#fff" stroke-width="1.5"><path d="M2 13.438C2 9.666 2 7.78 3.172 6.609C4.343 5.438 6.229 5.438 10 5.438h4c3.771 0 5.657 0 6.828 1.171C22 7.781 22 9.666 22 13.438c0 3.77 0 5.656-1.172 6.828c-1.171 1.172-3.057 1.172-6.828 1.172h-4c-3.771 0-5.657 0-6.828-1.172C2 19.094 2 17.209 2 13.438Z"></path><path d="M3.988 6c.112-.931.347-1.574.837-2.063C5.765 3 7.279 3 10.307 3h3.211c3.028 0 4.541 0 5.482.937c.49.489.725 1.132.837 2.063" opacity=".5"></path><circle cx="17.5" cy="9.938" r="1.5" opacity=".5"></circle><path stroke-linecap="round" d="m2 13.938l1.752-1.533a2.3 2.3 0 0 1 3.14.105l4.29 4.29a2 2 0 0 0 2.564.221l.299-.21a3 3 0 0 1 3.731.226l3.224 2.9" opacity=".5"></path></g></svg>